<svg id="Calque_1" data-name="Calque 1" xmlns="http://www.w3.org/2000/svg" viewBox="0 0 432 432"><defs><style>.cls-1{fill:#770c24;}.cls-2{fill:#a8753d;}.cls-3{fill:#282828;}</style></defs><title>11_100_REDO_January_2017_LoveSVG</title><path class="cls-1" d="M137.9,235.22a6.51,6.51,0,0,1-1.73.36c-1.88.08-5.61.35-6.39-.23-1.31-1,0-2.16,1.17-3.44,1-1,.57-.55.17-13-1.22-38.88,1.11-30.26-1.63-35.19-2-3.54,3.25-2.75,5-2.73s6.25-.4,4.29,2.51c-.77,1.15-1.93,3.08-1.81,4.47.74,8.91.62,40.23.51,41.52a2.43,2.43,0,0,0,.63,2.1C139.27,232.75,139.72,234.64,137.9,235.22Z"/><path class="cls-1" d="M166.57,235.55c-1,.22-1.43.11-1.66-.4-.68-1.47,3.37-2.66,5-3a5.15,5.15,0,0,1,.87-.17c.47,0,.64-.24.62-.7-.23-6.24-1-31.41-.8-42,0-2.9.61-3.51-.2-4.42-1.06-1.18-1.55-2.36-.18-3.13,1.55-.88,5.83-.32,7.58-.14s2.12,1.59,1,2.41a9,9,0,0,0-1.6,1.54,1.14,1.14,0,0,0-.26.91c1.08,12.1.1,24.91,0,44.35,0,.89,0,.95.88,1,5,.46,12.68,2.09,13.9-3.06a10.08,10.08,0,0,1,.24-1.09,1.15,1.15,0,0,1,2.26.33c-.24,3.93-1.71,6.25-7.72,7.49C181,236.62,173.64,234,166.57,235.55Z"/><path class="cls-1" d="M224.34,226a17.46,17.46,0,0,1-4.76,7.26,9.42,9.42,0,0,1-5.38,2.42c-3.32.45-7.18-2.55-9-5.21-6-8.55-9-24.62-4.8-38.56a16.52,16.52,0,0,1,4.3-7.16c2.34-2.31,2.41-3.23,5.83-5.06,2.49-1.33,8.42,0,11.79,5.89a33.57,33.57,0,0,1,3.8,10.85C227.47,204.09,227.4,216.85,224.34,226Zm-6.78-39.4c-2.44-3.2-7-2.35-9.29,4.76-2.46,7.54-2.25,14.58-1.36,23.53a59.67,59.67,0,0,0,1.71,7.46c2.5,10.88,6.75,11.15,9.21,6.44a24.68,24.68,0,0,0,2.48-6.75C222,213.51,222.83,193.48,217.56,186.58Z"/><path class="cls-1" d="M251.35,226.7c.35-.11.33-.33.38-.49q5.34-17.13,9.85-34.48c.5-1.92,1.25-5.42.06-7-1.44-1.94-.45-3.43,1.31-3.45,6-.06,7.4-.24,8.31.13a1.36,1.36,0,0,1,.43,2.4c-7.51,7-2.11.11-13.65,34.44-1.06,3.16-2.1,6.32-3.4,9.4-.82,1.94-1.3,4-2.09,6-.57,1.38-3.84,3.58-5.36.71-2.29-4.28-3.6-11-4.27-13.75-1-4.1-2.17-8.16-3.13-12.27-1.58-6.76-3.64-18.76-3.64-18.87,0-2.89-1.83-4.64-3.86-6.27-.17-.14-.39-.22-.56-.36a1.49,1.49,0,0,1,.67-2.64c2.48-.55,3.3-.55,10.95,0a1.54,1.54,0,0,1,1.41,2.4c-.68,1.5-2.52,2.91-2.07,6.26.41,3.05,1.2,6,1.75,9.05,1.38,7.67,2.24,9,6.59,27.66C251.12,225.88,251.23,226.27,251.35,226.7Z"/><path class="cls-1" d="M283.23,216.33c0,1.25,0,1.16,1.13,1.2,4.6.14,3.2.56,4.56-1.48a1.15,1.15,0,0,1,2.11.15c.28.58.31,1,.11,5.53a1.44,1.44,0,0,1-.92,1.4c-.88.34-1.89-.6-2.12-1a1.55,1.55,0,0,0-1.71-.88c-2.27.22-3.21-.39-3.15.76.55,10,0,1.18.79,10,.05.54.26.68.76.68,11.21,0,10.12.39,10.39-.77.55-2.41.17-3.34.23-5.2,0-1.12,1.66-1.44,2,.26a16.38,16.38,0,0,1,.27,6.08c-.57,3.71-3.21,2.77-13.86,2.37-8.76-.33-8.58,1-10.58-.55a1.37,1.37,0,0,1-.12-2.07c.75-.91,2.32-.87,2.91-3.44.51-2.26,3.81-31,1.57-41.31-1.23-5.64-6-8.44,6.63-7.6.52,0,10.89,0,13.57,0a4.9,4.9,0,0,1,5.12,5.51,2,2,0,0,1-1,1.73c-1.71,1-2.32-.84-2.94-2.07a1.8,1.8,0,0,0-1-.95c-2.57-.94-2.08-.74-12.91-.71-.57,0-.78.21-.78.77s-.11,1.19-.11,1.78C284.13,188.23,283.28,202,283.23,216.33Z"/><path class="cls-2" d="M154.92,312.11c1,.07,1.91.27,2.86.38,2.28.26,3.34,2.94,2.87,5.09a13,13,0,0,1-.57,1.8,1.22,1.22,0,0,1-2.34,0,13.27,13.27,0,0,1-.75-2.2c-.13-1.11-1.72-.94-9.13-.91-1.09,0-1.11,0-1.2,1.17-.66,8.55.12,11.7-.33,31.57-.08,3.48,0,7,0,10.46,0,1.66,1.42,3.15,2.37,4.41,2.27,3-2.54,3-6.29,2.82s-5,.12-5.56-1.25c-.31-.73.06-1.52,1.1-2.21a4.72,4.72,0,0,0,2.2-4.31c0-2.58.39-41.35.41-41.48.05-.54-.17-.74-.71-.69-1.33.1-2.66.15-4,.28-1.66.16-3.3.41-5,.56-.56,0-.8.22-.77.79.15,3.19-1.9,2.53-2,1.26-.28-3.76-1.23-6.24,3.57-6.86A94.58,94.58,0,0,1,154.92,312.11Z"/><path class="cls-2" d="M191,357a17.58,17.58,0,0,1-4.77,7.26,9.42,9.42,0,0,1-5.38,2.42c-3.33.46-7.18-2.56-9-5.21-6-8.52-9-24.56-4.8-38.56,1.31-4.36,3.44-6.28,6.72-9.77a12.92,12.92,0,0,1,3.41-2.45c2.48-1.32,8.41,0,11.8,5.89a33.64,33.64,0,0,1,3.79,10.85C194,334.85,194.09,347.69,191,357Zm-6.79-39.4c-2.22-2.91-5.5-2-7.42.87-4.67,6.94-4.05,19.12-3.23,27.43a61.34,61.34,0,0,0,1.71,7.45c1.15,5,3.74,11.76,7.67,8.46,1.89-1.57,3.54-6.34,4-8.77C188.59,344.59,189.44,324.52,184.17,317.63Z"/><path class="cls-2" d="M229.53,348.17a21.52,21.52,0,0,1-9.45,13c-13,8.14-16.44,4.84-20.42,5.53a1.53,1.53,0,0,1-1.15-2.8c1.29-.92,2.22-1.05,2.52-2.47.49-2.3-.16-35.27.21-46.8,0-.56-.1-.92-.68-1.08-2.2-.61-2-3.08-.23-3.4a12.13,12.13,0,0,1,2.42-.28,70.65,70.65,0,0,0,8-.24c12.69.13,18.79,7.75,20,20.48C231,332,231.27,341.84,229.53,348.17Zm-21.16,14.35a1.48,1.48,0,0,0,1-.08,30.91,30.91,0,0,0,8.91-4.18c2.5-1.66,4.84-4.57,6.29-9.3,3.21-10.42,3.24-32.38-7.87-35.62a15.59,15.59,0,0,0-7.55-.6c-1.2.25-.91.17-.83,2,.84,21.23-1,25.91-.06,45.58C208.3,361.06,208.33,361.8,208.37,362.52Z"/><path class="cls-2" d="M241.11,351.91c-.92,0-.92,0-1.06,1-.4,2.67-.77,5.35-1.2,8a1,1,0,0,0,.6,1.24,7.94,7.94,0,0,1,1.9,1.52,1.34,1.34,0,0,1,.42,1.51c-.23.59-.74.73-1.33.81a45.47,45.47,0,0,1-7,.14c-2.09,0-2.49-2-1.3-2.76,2.89-2,3.17-1.63,3.3-2.81a170.18,170.18,0,0,1,4.42-25.25c1.8-6.81,6.18-19.06,11.54-23.57a4.38,4.38,0,0,1,6,.21,11,11,0,0,1,1.59,2c5.73,8.36,5.62,23.6,6.05,33.8.16,3.82.61,2.58.41,11.66a1.73,1.73,0,0,0,.51,1.39,18.17,18.17,0,0,1,2.49,3.11,1.73,1.73,0,0,1-1.34,2.66,13.17,13.17,0,0,1-2,.21c-8.1.07-8.43.08-9.43-.21a1.94,1.94,0,0,1-.85-3.4c2.65-2.44,3.72-2.2,3.78-3.75.32-8.2.94-7.69-.58-7.73C255.19,351.6,256.07,351.87,241.11,351.91Zm-.5-2.55a3,3,0,0,0,1.35.06c7.38-.58,6.93,0,15.87-.75,1.09-.08,1.11-.12,1.08-1.16-.15-5.6.14-27.56-2.92-32.38a1,1,0,0,0-1.69-.33,32.53,32.53,0,0,0-3.1,3.32c-3.19,3.78-5,8.31-6.66,12.86A77.59,77.59,0,0,0,240.61,349.36Z"/><path class="cls-2" d="M289.43,336.62c2.61-9.78,2-13.79,5-21.42a2.37,2.37,0,0,0-.28-2.38c-.81-1.21-.4-2.05,1-2.26.12,0,7.05-.17,7.78,0a1.39,1.39,0,0,1,.88,2.36,19.07,19.07,0,0,1-1.7,1.9,4.58,4.58,0,0,0-1.25,2.29q-1.8,7.17-3.38,14.38c-3,13.37-6.32,22-7.63,30.47-.32,2.05,2.29,2.27,1.62,3.82-.35.8-.44.57-9.86,1-.67,0-1.25-.16-1.4-.81-.37-1.74,2.34-1.08,3.06-3a44.21,44.21,0,0,0,1.78-6c2.62-12.16,2.59-11.6,2.37-12.16-7.59-19.4-9.69-28.62-13.82-31.35-1.51-1-.6-2.9,4.33-2.46l3,.27c1.56.16,2.12,1.35,1.15,2.57s-.72,2.12,1.81,9.28c1.48,4.19,3.13,8.31,4.92,12.38A2.45,2.45,0,0,0,289.43,336.62Z"/><path class="cls-3" d="M248.9,160.62c-.52.4-1,3.61-2.88,6.89a13.72,13.72,0,0,1-3.3,4,11.32,11.32,0,0,1-11.3,1.93,19.79,19.79,0,0,1-10.95-8.89,44.5,44.5,0,0,1-3.35-7.68c-.4.14-.32.48-.36.73-.83,4.61-2,12.64-4.86,16.29a4.68,4.68,0,0,1-6.78.78c-2.62-2.08-4.26-7.05-5-10.59-2.62-13.3,2-28.6.46-37.08-.33-1.91-.56-1.6-1.12-1.29-2,1.14-3.84,3.67-5,5.66-5.56,9.41-8.53,21.14-10.05,32-.27,1.91-.31,3.21-2.22,3.5a3,3,0,0,1-3.54-1.9c-5.33-11.4-6.11-32.59-7.41-33.68a2.17,2.17,0,0,0-.76,1c-2.89,5.19-4.78,16-5.32,22.6-1.1,13.24,1.4,18.46-3.95,18.14-2.23-.13-3.86-1.8-5.22-3.59-5.14-6.78-6.55-14.76-7.09-23.23-.07-1.12-.08-1.12-1.14-1.22-1.48-.16-1.47-.16-1.45,1.35.11,10.22-2.27,18.84-4.53,23-6.71,12.46-27.61,4.22-25.39-25.07.56-7.37,2-11.13,1.75-11.65-.69-.13-6,0-8.37.11-1.27.07-1.21,0-1.22,1.18-.11,7.76-11.67,7.35-9.84,1.35.66-2.18,2.9-3.64,5-4.28.38-.11.53-.28.38-.71-4.56-12.49-15.26-8.89-16.43,1.18-1.55,13.28,14.9,20.08,18.22,33a11.73,11.73,0,0,1-7.25,14.05,12.63,12.63,0,0,1-14.49-5,12.94,12.94,0,0,1-1-12c.86-2.25,2.13-4.2,4.28-3.09a1.14,1.14,0,0,1,.66,1.53c-.22.81-4.07,6.15-.29,12.42,2.39,3.95,7.86,5.8,10.7,1.31,3.23-5.09.91-12.23-2.67-17.1-3.29-4.49-7.52-8.14-11.12-13.86-11-17.48,7.78-31.42,19.39-18.52,3.8,4.23,2.85,6.13,4.52,6,4-.23,7.93-.09,11.89-.3,2.51-.13,4,1.49,3.84,4-.27,3.45-2.79,12.24-1.36,21.79.83,5.53,4.09,12.81,8.44,15.51,2.68,1.66,5.1-.53,6.62-3.28,3.37-6.13,4.46-15.89,4.21-22.95,0-.86,0-.87-.86-1.1-8.73-2.43-18-8.88-16.46-17.58,1.64-9.29,18.52-8.55,21,14.37.09.8-.06,1.18.72,1.34,2.08.43,2.06.44,2.11-1.69a68.41,68.41,0,0,1,1.3-13c.55-2.48,1.59-4,4-3.43,2.89.66,2,2.77,1.54,8.3-1,11.72-.48,22.87,4.19,33.63a9.61,9.61,0,0,0,1,1.91c.89-1-1.42-16.65,4.76-34.49a19.26,19.26,0,0,1,1.91-4.15c2.29-3.52,6.94-3.41,9.26,1.55,2.58,5.51,2.68,14.9,4.62,25.17.39,0,.32-.34.37-.56a116,116,0,0,1,4.36-15.41c1.82-4.85,5.42-13.12,9.31-16.51s8.74-1.56,10.54,2.78c3.56,8.56-3.4,32.09,1.15,44.17a7.66,7.66,0,0,0,1.18,2.24c2.51-1.3,5.8-21.64,6.43-25.19.36-2-1-8,.21-14.35,1.46-7.89,7.78-15.1,15.23-11.77a12.25,12.25,0,0,1,7.49,10.36c.38,3.18-1.16,5.54-3.92,7.09-3.29,1.84-8,1.87-11.74,1.59-1.26-.1-1.27-.07-1.21,1.18.41,8.4,2.75,20.54,8.74,26.4a16.18,16.18,0,0,0,3.49,2.6,5.4,5.4,0,0,0,6.15-.47c4.55-3.2,6.54-12.54,7.79-18.54.38-1.83.12-3.83,1-6.35.95-2.73,6.62-1.51,6,1.86-1.14,6.47-.59,11.7,3.89,18.09,1.59,2.27,4.67,4,7.36,2.61,5-2.55,6.78-10.46,7.35-16.06.12-1.13.19-1.05-1-1.34-7.42-1.84-13.57-4.75-17.72-11.49a15.07,15.07,0,0,1-1-14.69c5.69-10.81,24.33-3.56,24,22.87,0,1.44,0,1.44,1.44,1.59,2.06.21,4.12.43,6.19.62s.45.53,1.28-12.66c.2-3.18.73-10,2.25-12.83a2.33,2.33,0,0,1,2.52-1.32,3,3,0,0,1,2.88,3.67c-.5,3.49-1.83,8-1.28,24.25a2.41,2.41,0,0,0,.25,1.2c7.05-34.34,24-34.67,28.31-21,2.07,6.6,1.26,16.75.5,24.3q-1,9.5-2.48,18.93c-.31,1.89-.87,3.6-2.86,3.65-4.45.11-3.46-3.14-3-7.61,1.1-10.05,5.26-35.05.6-42.87a1.71,1.71,0,0,0-1.93-.86c-4.65.81-8.73,6.79-10.77,11.06a54,54,0,0,0-5.07,28.77c.68,7.32,2.66,9.14-.34,9.76-2.27.46-3.64-.77-4.84-2.74-3.44-5.65-4.15-13.13-4.74-20.1-.08-.92-.09-.92-1-1-2.47-.14-4.95-.2-7.41-.51-.59-.07-.75.12-.81.67-.46,4.24-1.59,9.84-3.85,13.43-5.82,9.23-18.14,6.5-22.95-3.11-.26-.52-.5-1.05-.75-1.57C249,160.67,249,160.65,248.9,160.62Zm23.93-13.24a2.1,2.1,0,0,0,.09-.42,42.72,42.72,0,0,0-1.9-14.21c-1.85-5.53-7.62-13.39-11.73-9.44-3.51,3.37-4.23,11.53,1.91,18.06,3.09,3.29,7,4.93,11.29,6A1.42,1.42,0,0,0,272.83,147.38Zm-41.22-11.2a5.31,5.31,0,0,0,2.69-4.37,8.44,8.44,0,0,0-3.87-7.5c-3.55-2.51-7.3,3.76-8.65,7.92a20.82,20.82,0,0,0-.84,4.27c-.11,1-.1,1,.9,1.09C225.12,137.73,228.83,138,231.61,136.18ZM142,140.79c-.62-4.08-1.26-7.91-3.65-12-1.22-2.11-3.15-4.38-5.48-5.06a2,2,0,0,0-2.46.87c-1.36,1.88-1.2,4.85-.25,7.23,1.79,4.49,6.54,7.35,11.11,9A.74.74,0,0,0,142,140.79Zm-37.54-6.87c-1.52.73-2.25,1.87-2,3A3.2,3.2,0,0,0,104.5,133.92Z"/><path class="cls-3" d="M339.56,123.19c9.84,2.47,12.74,13.52,6.4,16.58-3.8,1.84-9.36,1.75-13.62,1.74-.87,0-.88,0-1,.79-1.47,14.08,2.92,26.44,6.53,30.85,5.31,6.49,7.07-4.18,9-12.37.48-2.06,4-2.28,3.65.16a64,64,0,0,1-2.12,9.91c-3.55,11.76-15.75,8.07-20.09-3a54.81,54.81,0,0,1-3.25-13.42C323.44,141.29,326.39,119.88,339.56,123.19Zm-4.14,15.42v-.18c5,0,10.47-.29,10.35-5.31a6.79,6.79,0,0,0-4.06-6.22c-5.18-2.58-8.39,5.39-9.64,11-.13.58,0,.66.63.66Z"/><path class="cls-3" d="M113.4,268.46c-1.83,2.25-5.39,21.73-8,25.86a5.59,5.59,0,0,1-7,2.46c-2.86-1-5.13-4-6.72-6.61a44.45,44.45,0,0,1-6.51-19.71c-.76-8.46.42-17.37,1.38-20.26.88-2.64,6-1.18,5.67,1.79-1.06,10.44-2.22,20.54,3,33.5,1,2.52,2.81,6.07,4.68,7.95.81.83,1,.82,1.59-.19,3.31-5.32,5.68-22.21,11.11-35.44.74-1.81,1.81-2.36,3.71-1.89,5.64,1.38,2.21,7,4,21.14,1.95,15.22,7.5,23.65,10,22,3.81-2.55,5.49-12.21,6.09-16.77a92.84,92.84,0,0,0,.89-15.45c0-1-.76-.76-3.1-2-10.46-5.73-10.8-19.8-2.9-18.35,6.47,1.18,9,9.77,9.79,16.33.26,2.13-.16,1.71,1.95,2.16,1.56.34,3.17.44,4.75.66.52.07.71,0,.76-.58.93-10.55,6.74-19.39,17.46-16.2,5.57,1.65,7.53,5.46,8.21,5.67.62-.93-.38-3,2.11-3.23,1.93-.16,4.2,1.06,4.29,3,.61,13.2-.64,17.46,1.21,40,.19,2.26.63,3.75-1.19,4.53-2.11.9-5,.13-5.17-2.22-1.61-20.62-1.06-22-1.26-24-.67.56-2.43,10.06-5.57,14.89-3.95,6.08-10.18,3.54-14.67-2.05a25.47,25.47,0,0,1-5.25-13.21c-.13-1.05-.17-2.1-.25-3.15s.44-.33-6.86-1.55c-.37.74.38,23.55-6.39,31.83-6.32,7.71-20.09.44-21.66-26.26C113.53,271.58,113.48,270.13,113.4,268.46Zm42.94,9.21c1.44,5.24,4.37,8.81,6.33,10.06.65.42.78.41,1.32-.1,4-3.73,7.44-20.68,8.75-26.07a1.4,1.4,0,0,0,0-.76c-2.87-9.62-12.21-11.78-16.38-.95C155.33,262.57,154.79,272,156.34,277.67ZM137,262.79c-.46-3.68-1.53-9.3-4-12-.4-.43-.77-1.22-1.4-1s-.71,1-.76,1.7a11.54,11.54,0,0,0,2.1,7.83A10.85,10.85,0,0,0,137,262.79Z"/><path class="cls-3" d="M260.08,277.5a77.43,77.43,0,0,0-8.38,6.55.88.88,0,0,0-.26,1.29,12.79,12.79,0,0,1,.79,1.91,10.92,10.92,0,0,1-1,9.64c-3.49,6-13.6,5.31-12.06-1.38.64-2.78,3.4-6.78,5.49-9.06.62-.69.59-.68.21-1.5-1.32-2.86-4.09-3.7-7.31-3.77-.82,0-.85,0-.87.86a95.27,95.27,0,0,0,.31,11.34c.53,4.48,2.41,7.8-1.82,8a3.08,3.08,0,0,1-3.45-2.35c-3.92-11.77-4-38.83-2.56-47.69.33-2.06,1.55-2.84,3.58-2.29a3,3,0,0,1,2.56,3.49c-.29,5.34-.45,8.39-.45,12.68a2.38,2.38,0,0,0,.54-1.13c2.51-7.55,7-14.25,10.14-17.26,6.65-6.41,15.26-.64,15.27,7.86,0,18.54-15.91,23.45-16.52,24,.2.33.56.36.85.49,3.8,1.66,3.54,3.25,4.61,2.32,5.07-4.39,8.25-6.32,9.77-7.88,1.85-1.89,6.77-1.37,7.22,2.24.25,2.06-.25,6.53.2,11,.42,4.23,2.12,9.33,4.57,11.56a2.86,2.86,0,0,0,4.4-.18,13.3,13.3,0,0,0,1.78-2.62c2.95-5.37,3.93-11.08,4.52-17.73.09-1,.07-1-.9-1.14a20.55,20.55,0,0,1-15.51-11.5c-3.49-6.83-2.14-13.7,1.26-17.06,3.66-3.62,10.38-3.8,14.9,2.79,6.09,8.86,4.61,21.94,5,22.9a4.64,4.64,0,0,0,1.78-.42c5.6-2,8.45-6.79,9.64-12.53.19-.91.18-.93-.73-1.24-5.08-1.75-10.47-5-11.66-10.19-1.34-5.93,5.44-8.66,10.85-5.91,4.33,2.19,6,8.33,6,13.18,0,1.66,0,1.66,1.66,2.06a25.9,25.9,0,0,0,2.9.52c2.52.31,4.19,1.63,4.58,4.08.53,3.35-.53,20.94-.39,36.22,0,3.74-6.67,3.59-6.56-.08,0-.17.09-19,.59-31.31a36.62,36.62,0,0,0-.07-4.8,1.64,1.64,0,0,0-1.37-1.69c-.56-.12-1.16-.63-1.65-.4s-.41,1-.58,1.57c-2.41,7.93-8,12.48-14.43,13.66a1,1,0,0,0-1,1,70.47,70.47,0,0,1-3.41,15c-1.48,4.28-4.16,8.61-8.48,10.08a8.68,8.68,0,0,1-10-2.85,15.92,15.92,0,0,1-2.52-4.81c-2.3-6.45-1.87-11.9-1.82-16.49A1.48,1.48,0,0,0,260.08,277.5Zm-23-.5a1.14,1.14,0,0,0,.32,0,24,24,0,0,0,10.8-6.91,26.58,26.58,0,0,0,6.42-16.77,8.37,8.37,0,0,0-1-4.62c-.5-.89-.59-.92-1.56-.71-3.64.79-8,7-9.8,10.28A45.36,45.36,0,0,0,237,276.36.84.84,0,0,0,237.06,277ZM282,262.67c-.7-4.34-2.31-10.11-5.67-12.94a2.41,2.41,0,0,0-3.46-.11c-2,1.48-3.86,5.3-3,10.64,1,6,5.9,12.1,11.9,13.5.63.15.7.11.71-.54A60,60,0,0,0,282,262.67Zm16.7-5.63c0-.06.09-.12.09-.19a16.51,16.51,0,0,0-2.15-9.32c-1.22-2.1-3.26-3.15-5.24-1.74-3,2.11-1.6,8.12,6.77,11.18A.7.7,0,0,0,298.66,257Zm-52.32,33.08a.35.35,0,0,0-.43.18c-1,1.42-2.81,4.4-2.7,6.08,0,.49,0,1.2.47,1.35s.89-.48,1.22-.9a12.28,12.28,0,0,0,1.51-4.84A6.86,6.86,0,0,0,246.34,290.12Z"/><path class="cls-3" d="M320.46,269.77c1.59-6.84,3.11-12.88,7.77-19.7,2.82-4.11,6.11-6.5,10.65-4.45,12.14,5.48,7.51,38.13,6.17,51.58a5.55,5.55,0,0,1-1,3c-1.69,2.23-5.44,2.64-5.35-.59.09-3.41,1.83-18,1.78-30.16,0-4.84-.61-15.78-2.85-19.62-.61-1-.86-1.14-2-.71-5.81,2.1-10,13.84-11.29,20.48A77.86,77.86,0,0,0,323,289.43a52.19,52.19,0,0,0,1,6.46c.42,2.3-3.78,3.77-5.44.7-5.85-10.87-5.24-42.57-4-46.7a2.37,2.37,0,0,1,2.77-1.9,3,3,0,0,1,3,3c.13,2.6-.31,5.75,0,17.35A3.05,3.05,0,0,0,320.46,269.77Z"/><path class="cls-3" d="M190.64,258.49a21.18,21.18,0,0,0,1.67,8c3.7,8.89,10.81,14.69,13.09,24a7.73,7.73,0,0,1-8.17,9.85c-5.61-.39-8.27-5.52-7.42-11.21a1.6,1.6,0,0,1,1.32-1.42,2.29,2.29,0,0,1,2.24.47c.3.28.24.66.24,1,0,2.52.55,5.7,2.47,7.35.89.75,1.4.71,2-.25,1.82-2.69.87-6.51-.34-9.54-3.58-8.94-11.29-14.83-13.12-26-1.58-9.73,4.6-18.21,12.84-13.54,4.18,2.37,6.46,6.15,7.5,10.75a4,4,0,0,1,.05,1.3c-.06.81-.47,1.15-1.28,1.19a2.36,2.36,0,0,1-2.43-1.77c-.74-2.57-1.89-6.37-4.7-8.27a2.13,2.13,0,0,0-3,.16,6.43,6.43,0,0,0-1.63,2.17A12.72,12.72,0,0,0,190.64,258.49Z"/><path class="cls-2" d="M227.35,65.43c-5.88,1.81-8.59,5.49-11.35,9.46-2.76-4-5.47-7.65-11.35-9.46-9.77-3-19.2,5.21-17.12,16.72,2.3,12.77,16.34,27,28.47,30.07,12.13-3.11,26.17-17.3,28.47-30.07C246.55,70.64,237.12,62.42,227.35,65.43Z"/><path class="cls-1" d="M348.32,340.25q-18.72.44-37.41-.76c-2.21-.14-2.2,3.3,0,3.44q18.69,1.19,37.41.76C350.53,343.64,350.54,340.2,348.32,340.25Z"/><path class="cls-1" d="M346.3,312.72q-18,8.32-36.14,16.23c-2,.88-.28,3.84,1.73,3Q330.06,324,348,315.68C350,314.76,348.3,311.79,346.3,312.72Z"/><path class="cls-1" d="M345,363.77l-33.62-12.91c-2.07-.79-3,2.53-.92,3.31L344,367.08C346.1,367.87,347,364.55,345,363.77Z"/><path class="cls-1" d="M83.68,340.25q18.72.44,37.41-.76c2.21-.14,2.2,3.3,0,3.44q-18.69,1.19-37.41.76C81.47,343.64,81.46,340.2,83.68,340.25Z"/><path class="cls-1" d="M85.7,312.72q18,8.32,36.14,16.23c2,.88.28,3.84-1.73,3Q101.95,324,84,315.68C82,314.76,83.7,311.79,85.7,312.72Z"/><path class="cls-1" d="M87.05,363.77l33.62-12.91c2.07-.79,3,2.53.92,3.31L88,367.08C85.9,367.87,85,364.55,87.05,363.77Z"/></svg>